<?xml version="1.0" encoding="UTF-8"?>
<svg id="katman_1" xmlns="http://www.w3.org/2000/svg" viewBox="0 0 1080 1920" preserveAspectRatio="xMidYMid slice" version="1.1">
  <!-- Generator: Adobe Illustrator 30.4.0, SVG Export Plug-In . SVG Version: 2.1.4 Build 226)  -->
  <defs>
    <style>
      .st0 {
        fill: none;
      }

      .st1 {
        fill: #ededee;
      }

      .st2 {
        fill: #333132;
      }
    </style>
  </defs>
  <rect class="st0" x="-420.44" y="419.58" width="1920" height="1080" transform="translate(1499.1356 420.0169) rotate(90)"/>
  <rect class="st1" x="598.11" y="316.1" width="441.45" height="73.08" rx="11.62" ry="11.62"/>
  <g>
    <g>
      <path class="st1" d="M608.27,134.98v20.32h50.35c5.56,0,10.07,4.55,10.07,10.16v50.8h20.14v-60.96c0-11.22-9.02-20.32-20.14-20.32h-60.42Z"/>
      <polygon class="st1" points="769.38 134.98 769.38 114.66 719.03 114.66 708.96 104.5 708.96 53.7 688.82 53.7 688.82 134.98 769.38 134.98"/>
    </g>
    <g>
      <path class="st1" d="M610.13,269.35v-15.5h4.97c.89,0,1.69.18,2.4.55.71.36,1.27.9,1.68,1.61.41.71.62,1.57.62,2.59s-.21,1.83-.62,2.51c-.41.68-.97,1.2-1.68,1.55-.71.35-1.51.53-2.4.53h-2.99v6.16h-1.98ZM612.1,261.54h2.82c.85,0,1.54-.24,2.07-.73.52-.49.79-1.23.79-2.22,0-1.06-.26-1.84-.79-2.36s-1.22-.77-2.06-.77h-2.82v6.07Z"/>
      <path class="st1" d="M623.64,269.53c-.59,0-1.12-.12-1.6-.37-.48-.25-.86-.61-1.15-1.09-.29-.48-.43-1.09-.43-1.81,0-1.03.28-1.82.84-2.36.56-.54,1.36-.92,2.39-1.12,1.03-.2,2.23-.31,3.62-.33v-1.09c0-.97-.2-1.64-.6-2-.4-.37-.92-.55-1.55-.55s-1.15.14-1.56.42-.64.71-.7,1.31h-1.78c.13-1.07.55-1.86,1.25-2.34.7-.49,1.63-.73,2.79-.73.55,0,1.06.06,1.54.18s.9.32,1.26.61c.37.29.65.69.86,1.2s.31,1.16.31,1.94v7.97h-1.71l-.08-1.62c-.46.55-.98.99-1.58,1.32-.6.33-1.3.49-2.12.49ZM624.15,268.16c.65,0,1.25-.17,1.8-.51.54-.34.99-.74,1.35-1.22v-2.87c-1.77.02-3.05.23-3.82.63s-1.16,1.07-1.16,1.99c0,.61.16,1.09.47,1.44.31.35.77.53,1.37.53Z"/>
      <path class="st1" d="M635.99,269.51c-.95,0-1.78-.23-2.49-.68-.71-.45-1.26-1.12-1.64-2.02s-.58-1.99-.58-3.31.19-2.44.57-3.33c.38-.89.92-1.57,1.63-2.03.71-.46,1.55-.69,2.52-.69.76,0,1.44.12,2.04.36.6.24,1.09.61,1.46,1.11.37.5.6,1.12.68,1.87h-1.83c-.1-.58-.34-1.04-.72-1.36-.38-.33-.92-.49-1.62-.49-.98,0-1.7.4-2.16,1.21s-.69,1.92-.69,3.35c0,.94.1,1.75.3,2.42s.51,1.2.94,1.55c.42.36.96.54,1.6.54.72,0,1.28-.17,1.68-.51.4-.34.65-.85.76-1.51h1.82c-.13,1.18-.58,2.06-1.35,2.64-.77.58-1.74.87-2.92.87Z"/>
      <path class="st1" d="M642.47,269.35v-15.5h1.86v9.32l4.45-5.52h2.16l-4.49,5.47,4.89,6.23h-2.26l-4.75-6.08v6.08h-1.86Z"/>
      <path class="st1" d="M655.66,269.35c-.81,0-1.45-.14-1.9-.41-.45-.27-.76-.68-.94-1.21-.18-.54-.26-1.2-.26-1.98v-6.62h-1.69v-1.47h1.69v-2.56h1.83v2.56h2.45v1.47h-2.45v6.54c0,.68.08,1.21.23,1.61.16.4.54.6,1.15.6h1.07v1.47h-1.19Z"/>
      <path class="st1" d="M658.62,272.52l-.43-1.05c.41-.2.77-.48,1.07-.84.3-.36.49-.79.55-1.28l.11.12c-.4,0-.73-.14-.99-.42-.26-.28-.39-.61-.39-1s.13-.74.39-1.01c.26-.26.59-.4.99-.4s.72.14.98.43.39.73.39,1.34c0,.72-.12,1.34-.36,1.87-.24.52-.56.96-.97,1.33-.41.36-.85.67-1.34.92Z"/>
      <path class="st1" d="M667.85,269.35v-11.7h1.79l.05,1.74c.3-.46.75-.89,1.33-1.29.58-.4,1.3-.6,2.15-.6,1.1,0,1.89.34,2.39,1.03s.75,1.63.75,2.83v7.99h-1.85v-7.66c0-.48-.05-.93-.14-1.33s-.27-.73-.52-.97c-.26-.24-.64-.36-1.14-.36-.69,0-1.28.19-1.77.56-.49.38-.88.78-1.18,1.22v8.54h-1.86ZM681.05,269.35v-7.66c0-.48-.05-.93-.14-1.33s-.27-.73-.53-.97c-.26-.24-.64-.36-1.14-.36-.68,0-1.27.19-1.76.56-.5.37-.91.77-1.23,1.2l-.25-1.27c.4-.51.92-.98,1.54-1.4.62-.42,1.37-.63,2.23-.63,1.09,0,1.88.35,2.38,1.05.5.7.75,1.66.75,2.89v7.91h-1.85Z"/>
      <path class="st1" d="M688.21,269.53c-.59,0-1.12-.12-1.6-.37-.48-.25-.86-.61-1.15-1.09-.29-.48-.43-1.09-.43-1.81,0-1.03.28-1.82.84-2.36.56-.54,1.36-.92,2.39-1.12,1.03-.2,2.23-.31,3.62-.33v-1.09c0-.97-.2-1.64-.6-2-.4-.37-.92-.55-1.55-.55s-1.15.14-1.56.42-.64.71-.7,1.31h-1.78c.13-1.07.55-1.86,1.25-2.34.7-.49,1.63-.73,2.79-.73.55,0,1.06.06,1.54.18s.9.32,1.26.61c.37.29.65.69.86,1.2s.31,1.16.31,1.94v7.97h-1.71l-.08-1.62c-.46.55-.98.99-1.58,1.32-.6.33-1.3.49-2.12.49ZM688.72,268.16c.65,0,1.25-.17,1.8-.51.54-.34.99-.74,1.35-1.22v-2.87c-1.77.02-3.05.23-3.82.63s-1.16,1.07-1.16,1.99c0,.61.16,1.09.47,1.44.31.35.77.53,1.37.53Z"/>
      <path class="st1" d="M699.98,269.53c-.56,0-1.08-.06-1.58-.18-.5-.12-.93-.3-1.32-.55-.38-.25-.69-.58-.92-.99-.23-.41-.36-.89-.4-1.46h1.77c.07.66.32,1.12.76,1.39.44.27,1.02.4,1.72.4.63,0,1.15-.15,1.56-.44.41-.29.62-.77.62-1.43,0-.62-.19-1.09-.56-1.41-.38-.32-1.04-.6-2-.86-.77-.21-1.42-.45-1.96-.73s-.95-.63-1.22-1.06c-.27-.43-.41-.97-.41-1.62,0-.51.1-.96.29-1.35s.46-.72.81-.99c.35-.26.75-.47,1.22-.6.47-.14.98-.21,1.52-.21.52,0,1,.06,1.46.17s.86.3,1.21.54c.35.25.63.56.84.94.21.38.32.83.34,1.35h-1.77c-.05-.58-.26-1-.65-1.24-.38-.24-.87-.36-1.44-.36s-1.08.13-1.45.4-.56.69-.56,1.28c0,.33.09.61.27.84s.47.43.87.6.93.35,1.59.54c.74.19,1.36.44,1.87.73.51.29.9.67,1.16,1.13.27.46.4,1.04.4,1.75,0,.78-.18,1.42-.54,1.92-.36.5-.85.87-1.46,1.11-.61.24-1.29.36-2.06.36Z"/>
      <path class="st1" d="M708.58,269.53c-.59,0-1.12-.12-1.6-.37-.48-.25-.86-.61-1.15-1.09-.29-.48-.43-1.09-.43-1.81,0-1.03.28-1.82.84-2.36.56-.54,1.36-.92,2.39-1.12,1.03-.2,2.23-.31,3.62-.33v-1.09c0-.97-.2-1.64-.6-2-.4-.37-.92-.55-1.55-.55s-1.15.14-1.56.42-.64.71-.7,1.31h-1.78c.13-1.07.55-1.86,1.25-2.34.7-.49,1.63-.73,2.79-.73.55,0,1.06.06,1.54.18s.9.32,1.26.61c.37.29.65.69.86,1.2s.31,1.16.31,1.94v7.97h-1.71l-.08-1.62c-.46.55-.98.99-1.58,1.32-.6.33-1.3.49-2.12.49ZM709.09,268.16c.65,0,1.25-.17,1.8-.51.54-.34.99-.74,1.35-1.22v-2.87c-1.77.02-3.05.23-3.82.63s-1.16,1.07-1.16,1.99c0,.61.16,1.09.47,1.44.31.35.77.53,1.37.53Z"/>
      <path class="st1" d="M716.79,269.35v-11.7h1.79l.05,1.74c.32-.46.77-.89,1.35-1.29.58-.4,1.31-.6,2.2-.6,1.1,0,1.91.35,2.41,1.04.51.69.76,1.65.76,2.88v7.94h-1.85v-7.67c0-.48-.05-.91-.14-1.31s-.27-.72-.53-.97c-.26-.25-.64-.37-1.15-.37-.72,0-1.32.19-1.83.57-.5.38-.91.79-1.21,1.23v8.52h-1.86Z"/>
      <path class="st1" d="M728.05,269.35v-11.7h1.86v11.7h-1.86Z"/>
      <path class="st1" d="M731.74,269.35v-1.43l5.54-8.78h-5.1v-1.5h7.18v1.31l-5.58,8.89h5.88v1.5h-7.91Z"/>
      <path class="st1" d="M741.46,269.35v-11.7h1.86v11.7h-1.86Z"/>
      <path class="st1" d="M753.34,269.35c-.81,0-1.45-.14-1.9-.41-.45-.27-.76-.68-.94-1.21-.18-.54-.26-1.2-.26-1.98v-6.62h-1.69v-1.47h1.69v-2.56h1.83v2.56h2.45v1.47h-2.45v6.54c0,.68.08,1.21.23,1.61.16.4.54.6,1.15.6h1.07v1.47h-1.19Z"/>
      <path class="st1" d="M758.81,269.53c-.59,0-1.12-.12-1.6-.37-.48-.25-.86-.61-1.15-1.09-.29-.48-.43-1.09-.43-1.81,0-1.03.28-1.82.84-2.36.56-.54,1.36-.92,2.39-1.12,1.03-.2,2.23-.31,3.62-.33v-1.09c0-.97-.2-1.64-.6-2-.4-.37-.92-.55-1.55-.55s-1.15.14-1.56.42-.64.71-.7,1.31h-1.78c.13-1.07.55-1.86,1.25-2.34.7-.49,1.63-.73,2.79-.73.55,0,1.06.06,1.54.18s.9.32,1.26.61c.37.29.65.69.86,1.2s.31,1.16.31,1.94v7.97h-1.71l-.08-1.62c-.46.55-.98.99-1.58,1.32-.6.33-1.3.49-2.12.49ZM759.32,268.16c.65,0,1.25-.17,1.8-.51.54-.34.99-.74,1.35-1.22v-2.87c-1.77.02-3.05.23-3.82.63s-1.16,1.07-1.16,1.99c0,.61.16,1.09.47,1.44.31.35.77.53,1.37.53Z"/>
      <path class="st1" d="M767.01,269.35v-11.7h1.79l.05,1.74c.3-.46.75-.89,1.33-1.29.58-.4,1.3-.6,2.15-.6,1.1,0,1.89.34,2.39,1.03s.75,1.63.75,2.83v7.99h-1.85v-7.66c0-.48-.05-.93-.14-1.33s-.27-.73-.52-.97c-.26-.24-.64-.36-1.14-.36-.69,0-1.28.19-1.77.56-.49.38-.88.78-1.18,1.22v8.54h-1.86ZM780.21,269.35v-7.66c0-.48-.05-.93-.14-1.33s-.27-.73-.53-.97c-.26-.24-.64-.36-1.14-.36-.68,0-1.27.19-1.76.56-.5.37-.91.77-1.23,1.2l-.25-1.27c.4-.51.92-.98,1.54-1.4.62-.42,1.37-.63,2.23-.63,1.09,0,1.88.35,2.38,1.05.5.7.75,1.66.75,2.89v7.91h-1.85Z"/>
      <path class="st1" d="M789.49,255.88c-.34,0-.62-.1-.82-.3-.21-.2-.31-.45-.31-.76s.1-.56.31-.77c.21-.2.48-.31.82-.31s.62.1.82.31c.21.2.31.46.31.77s-.1.56-.31.76c-.21.2-.48.3-.82.3ZM788.56,269.35v-11.7h1.85v11.7h-1.85Z"/>
      <path class="st1" d="M793.21,269.35v-15.5h1.84v5.52c.32-.45.77-.87,1.34-1.27s1.31-.6,2.21-.6c1.11,0,1.92.34,2.42,1.03.5.68.75,1.64.75,2.88v7.95h-1.86v-7.68c0-.45-.04-.87-.13-1.27-.09-.4-.26-.73-.51-.98-.26-.25-.64-.37-1.16-.37-.72,0-1.34.19-1.84.56-.5.38-.9.78-1.2,1.21v8.54h-1.86Z"/>
      <path class="st1" d="M807.91,269.35c-.81,0-1.45-.14-1.9-.41-.45-.27-.76-.68-.94-1.21-.18-.54-.26-1.2-.26-1.98v-6.62h-1.69v-1.47h1.69v-2.56h1.83v2.56h2.45v1.47h-2.45v6.54c0,.68.08,1.21.23,1.61.16.4.54.6,1.15.6h1.07v1.47h-1.19Z"/>
      <path class="st1" d="M811.75,255.88c-.34,0-.62-.1-.82-.3-.21-.2-.31-.45-.31-.76s.1-.56.31-.77c.21-.2.48-.31.82-.31s.62.1.82.31c.21.2.31.46.31.77s-.1.56-.31.76c-.21.2-.48.3-.82.3ZM810.83,269.35v-11.7h1.85v11.7h-1.85Z"/>
      <path class="st1" d="M814.88,273.47v-1.51h.87c.39,0,.71-.12.98-.36.26-.24.49-.64.69-1.19l.38-1.06-4-11.7h1.94l3.05,9.74,2.8-9.74h1.88l-3.77,11.7-.46,1.31c-.22.64-.47,1.18-.74,1.59-.27.42-.61.73-1.01.92-.4.2-.92.29-1.55.29h-1.06Z"/>
      <path class="st1" d="M827.11,269.53c-.59,0-1.12-.12-1.6-.37-.48-.25-.86-.61-1.15-1.09-.29-.48-.43-1.09-.43-1.81,0-1.03.28-1.82.84-2.36.56-.54,1.36-.92,2.39-1.12,1.03-.2,2.23-.31,3.62-.33v-1.09c0-.97-.2-1.64-.6-2-.4-.37-.92-.55-1.55-.55s-1.15.14-1.56.42-.64.71-.7,1.31h-1.78c.13-1.07.55-1.86,1.25-2.34.7-.49,1.63-.73,2.79-.73.55,0,1.06.06,1.54.18s.9.32,1.26.61c.37.29.65.69.86,1.2s.31,1.16.31,1.94v7.97h-1.71l-.08-1.62c-.46.55-.98.99-1.58,1.32-.6.33-1.3.49-2.12.49ZM827.62,268.16c.65,0,1.25-.17,1.8-.51.54-.34.99-.74,1.35-1.22v-2.87c-1.77.02-3.05.23-3.82.63s-1.16,1.07-1.16,1.99c0,.61.16,1.09.47,1.44.31.35.77.53,1.37.53Z"/>
      <path class="st1" d="M839.46,269.51c-.95,0-1.78-.23-2.49-.68-.71-.45-1.26-1.12-1.64-2.02s-.58-1.99-.58-3.31.19-2.44.57-3.33c.38-.89.92-1.57,1.63-2.03.71-.46,1.55-.69,2.52-.69.76,0,1.44.12,2.04.36.6.24,1.09.61,1.46,1.11.37.5.6,1.12.68,1.87h-1.83c-.1-.58-.34-1.04-.72-1.36-.38-.33-.92-.49-1.62-.49-.98,0-1.7.4-2.16,1.21s-.69,1.92-.69,3.35c0,.94.1,1.75.3,2.42s.51,1.2.94,1.55c.42.36.96.54,1.6.54.72,0,1.28-.17,1.68-.51.4-.34.65-.85.76-1.51h1.82c-.13,1.18-.58,2.06-1.35,2.64-.77.58-1.74.87-2.92.87Z"/>
      <path class="st1" d="M845.94,269.35v-11.7h1.86v11.7h-1.86Z"/>
      <path class="st1" d="M850.59,269.35v-11.7h1.79l.05,1.74c.32-.46.77-.89,1.35-1.29.58-.4,1.31-.6,2.2-.6,1.1,0,1.91.35,2.41,1.04.51.69.76,1.65.76,2.88v7.94h-1.85v-7.67c0-.48-.05-.91-.14-1.31s-.27-.72-.53-.97c-.26-.25-.64-.37-1.15-.37-.72,0-1.32.19-1.83.57-.5.38-.91.79-1.21,1.23v8.52h-1.86Z"/>
      <path class="st1" d="M861.86,269.35v-11.7h1.86v11.7h-1.86Z"/>
      <path class="st1" d="M865.54,269.35v-1.43l5.54-8.78h-5.1v-1.5h7.18v1.31l-5.58,8.89h5.88v1.5h-7.91Z"/>
      <path class="st1" d="M877.77,269.53c-.59,0-1.12-.12-1.6-.37-.48-.25-.86-.61-1.15-1.09-.29-.48-.43-1.09-.43-1.81,0-1.03.28-1.82.84-2.36.56-.54,1.36-.92,2.39-1.12,1.03-.2,2.23-.31,3.62-.33v-1.09c0-.97-.2-1.64-.6-2-.4-.37-.92-.55-1.55-.55s-1.15.14-1.56.42-.64.71-.7,1.31h-1.78c.13-1.07.55-1.86,1.25-2.34.7-.49,1.63-.73,2.79-.73.55,0,1.06.06,1.54.18s.9.32,1.26.61c.37.29.65.69.86,1.2s.31,1.16.31,1.94v7.97h-1.71l-.08-1.62c-.46.55-.98.99-1.58,1.32-.6.33-1.3.49-2.12.49ZM878.28,268.16c.65,0,1.25-.17,1.8-.51.54-.34.99-.74,1.35-1.22v-2.87c-1.77.02-3.05.23-3.82.63s-1.16,1.07-1.16,1.99c0,.61.16,1.09.47,1.44.31.35.77.53,1.37.53Z"/>
      <path class="st1" d="M893.38,273.69c-1.12,0-2.01-.14-2.68-.42-.67-.28-1.16-.65-1.46-1.11-.3-.46-.45-.95-.45-1.47,0-.68.25-1.28.76-1.8.51-.52,1.29-.88,2.35-1.09l.33-.65h1.38c1.6-.01,2.78.22,3.56.7.77.47,1.16,1.26,1.16,2.36,0,1.01-.42,1.85-1.25,2.5-.83.65-2.06.98-3.69.98ZM892.05,268.44c-.71-.05-1.27-.19-1.68-.4-.41-.21-.7-.46-.88-.73s-.26-.54-.26-.78c0-.37.15-.73.45-1.09s.77-.65,1.43-.86l.76.51c-.37.12-.66.29-.86.51s-.3.45-.3.7c0,.16.07.3.2.43.13.13.36.23.68.3.32.08.75.12,1.3.13l-.83,1.29ZM893.24,265.39c-.87,0-1.6-.18-2.19-.54-.59-.36-1.04-.84-1.35-1.43-.3-.59-.46-1.23-.46-1.92,0-.74.15-1.4.46-2,.31-.6.76-1.07,1.36-1.42s1.35-.53,2.24-.53,1.66.18,2.25.53c.59.35,1.02.83,1.31,1.42.29.59.43,1.26.43,2s-.15,1.37-.44,1.95c-.29.59-.74,1.06-1.34,1.41-.6.35-1.36.53-2.28.53ZM893.34,272.39c1.18,0,2.01-.2,2.49-.59s.73-.88.73-1.46c0-.37-.09-.68-.27-.94s-.5-.45-.94-.59c-.45-.13-1.06-.2-1.83-.2h-1.52c-.48.14-.85.38-1.1.73s-.38.74-.38,1.19c0,.49.22.92.66,1.3.44.38,1.16.56,2.16.56ZM893.24,264.17c.69,0,1.25-.22,1.67-.66s.63-1.11.63-2.01-.2-1.63-.59-2.07c-.4-.45-.94-.67-1.64-.67s-1.25.23-1.67.7c-.42.46-.63,1.15-.63,2.04s.22,1.56.66,2,.97.67,1.58.67ZM895.93,258.75l-.64-.68c.29-.69.67-1.17,1.14-1.44.47-.27,1.09-.42,1.85-.44v1.57c-.49,0-.94.06-1.35.17-.41.11-.75.39-1,.82Z"/>
      <path class="st1" d="M903.71,269.51c-1.01,0-1.87-.24-2.58-.71-.71-.47-1.24-1.16-1.61-2.05-.37-.89-.55-1.97-.55-3.24s.18-2.37.55-3.28c.37-.9.9-1.59,1.61-2.06.71-.47,1.57-.71,2.58-.71s1.91.24,2.63.71c.72.47,1.26,1.16,1.64,2.06.38.9.56,1.99.56,3.28s-.19,2.35-.56,3.24c-.38.89-.92,1.58-1.64,2.05-.72.47-1.59.71-2.63.71ZM903.71,268.05c.72,0,1.3-.19,1.74-.58.43-.38.74-.92.93-1.59.19-.68.28-1.47.28-2.37s-.09-1.7-.28-2.39c-.19-.69-.5-1.22-.93-1.61-.43-.39-1.01-.58-1.74-.58s-1.26.19-1.68.58c-.42.39-.72.92-.9,1.61s-.27,1.48-.27,2.4.09,1.69.27,2.37.48,1.21.9,1.59c.42.38.98.57,1.68.57ZM901.92,255.41c-.28,0-.52-.09-.71-.28-.19-.19-.29-.43-.29-.73s.1-.53.29-.73c.19-.19.43-.29.71-.29s.51.1.7.29c.19.19.29.43.29.73s-.1.54-.29.73c-.19.19-.43.28-.7.28ZM905.58,255.41c-.27,0-.51-.09-.7-.28-.19-.19-.29-.43-.29-.73s.1-.53.29-.73c.19-.19.43-.29.7-.29s.52.1.71.29c.19.19.29.43.29.73s-.1.54-.29.73c-.19.19-.43.28-.71.28Z"/>
      <path class="st1" d="M910.76,269.35v-11.7h1.76l.05,1.9c.28-.57.68-1.05,1.18-1.45.51-.4,1.16-.59,1.96-.59h.21v1.69h-.24c-.48,0-.91.07-1.28.21-.38.14-.71.34-.99.6-.29.26-.54.56-.77.91v8.43h-1.86Z"/>
      <path class="st1" d="M921.38,269.53c-1.12,0-2.03-.25-2.75-.76-.71-.51-1.24-1.2-1.58-2.08-.34-.88-.51-1.89-.51-3.02,0-1.25.17-2.34.5-3.27.33-.93.84-1.65,1.53-2.17s1.56-.77,2.61-.77c1.39,0,2.48.49,3.28,1.46.8.97,1.2,2.38,1.2,4.21,0,.1,0,.22-.01.36,0,.14-.02.26-.02.34h-7.24c0,.81.1,1.53.3,2.18.2.65.52,1.16.96,1.54.44.38,1.01.56,1.73.56s1.22-.15,1.59-.44.63-.72.78-1.28h1.85c-.12.65-.36,1.21-.71,1.68-.35.47-.82.83-1.41,1.08-.59.25-1.29.38-2.1.38ZM918.39,262.47h5.46c-.02-1.17-.27-2.07-.73-2.68-.46-.61-1.11-.92-1.93-.92s-1.48.29-1.96.88c-.48.58-.76,1.49-.83,2.72Z"/>
      <path class="st1" d="M935.22,269.53c-.56,0-1.08-.06-1.58-.18-.5-.12-.93-.3-1.32-.55-.38-.25-.69-.58-.92-.99-.23-.41-.36-.89-.4-1.46h1.77c.07.66.32,1.12.76,1.39.44.27,1.02.4,1.72.4.63,0,1.15-.15,1.56-.44.41-.29.62-.77.62-1.43,0-.62-.19-1.09-.56-1.41-.38-.32-1.04-.6-2-.86-.77-.21-1.42-.45-1.96-.73s-.95-.63-1.22-1.06c-.27-.43-.41-.97-.41-1.62,0-.51.1-.96.29-1.35s.46-.72.81-.99c.35-.26.75-.47,1.22-.6.47-.14.98-.21,1.52-.21.52,0,1,.06,1.46.17s.86.3,1.21.54c.35.25.63.56.84.94.21.38.32.83.34,1.35h-1.77c-.05-.58-.26-1-.65-1.24-.38-.24-.87-.36-1.44-.36s-1.08.13-1.45.4-.56.69-.56,1.28c0,.33.09.61.27.84s.47.43.87.6.93.35,1.59.54c.74.19,1.36.44,1.87.73.51.29.9.67,1.16,1.13.27.46.4,1.04.4,1.75,0,.78-.18,1.42-.54,1.92-.36.5-.85.87-1.46,1.11-.61.24-1.29.36-2.06.36ZM934.97,273.75c-.4,0-.75-.04-1.05-.1-.3-.07-.59-.16-.86-.28l.3-1.05c.17.09.41.17.69.23.29.06.57.09.85.09.25,0,.46-.07.64-.2.17-.13.26-.32.26-.56,0-.26-.11-.46-.33-.6-.22-.14-.61-.24-1.17-.31l-.45-.06,1.37-2.04.86.43-.69,1.08-.35-.28c.64.04,1.14.2,1.51.48s.55.7.55,1.26c0,.42-.09.77-.28,1.05s-.44.5-.76.64c-.32.14-.69.21-1.1.21Z"/>
      <path class="st1" d="M945.57,269.53c-1.12,0-2.03-.25-2.75-.76-.71-.51-1.24-1.2-1.58-2.08-.34-.88-.51-1.89-.51-3.02,0-1.25.17-2.34.5-3.27.33-.93.84-1.65,1.53-2.17s1.56-.77,2.61-.77c1.39,0,2.48.49,3.28,1.46.8.97,1.2,2.38,1.2,4.21,0,.1,0,.22-.01.36,0,.14-.02.26-.02.34h-7.24c0,.81.1,1.53.3,2.18.2.65.52,1.16.96,1.54.44.38,1.01.56,1.73.56s1.22-.15,1.59-.44.63-.72.78-1.28h1.85c-.12.65-.36,1.21-.71,1.68-.35.47-.82.83-1.41,1.08-.59.25-1.29.38-2.1.38ZM942.58,262.47h5.46c-.02-1.17-.27-2.07-.73-2.68-.46-.61-1.11-.92-1.93-.92s-1.48.29-1.96.88c-.48.58-.76,1.49-.83,2.72Z"/>
      <path class="st1" d="M952.07,269.35v-15.5h1.86v9.32l4.45-5.52h2.16l-4.49,5.47,4.89,6.23h-2.26l-4.75-6.08v6.08h-1.86Z"/>
      <path class="st1" d="M962.89,255.88c-.34,0-.62-.1-.82-.3-.21-.2-.31-.45-.31-.76s.1-.56.31-.77c.21-.2.48-.31.82-.31s.62.1.82.31c.21.2.31.46.31.77s-.1.56-.31.76c-.21.2-.48.3-.82.3ZM961.96,269.35v-11.7h1.85v11.7h-1.85Z"/>
      <path class="st1" d="M969.62,269.35c-.84,0-1.49-.13-1.94-.38-.45-.25-.75-.63-.92-1.12s-.26-1.1-.26-1.82v-12.19h1.85v12.11c0,.61.08,1.08.25,1.41.16.32.54.48,1.14.48h.47v1.51h-.58Z"/>
      <path class="st1" d="M974.53,269.35c-.84,0-1.49-.13-1.94-.38-.45-.25-.75-.63-.92-1.12s-.26-1.1-.26-1.82v-12.19h1.85v12.11c0,.61.08,1.08.25,1.41.16.32.54.48,1.14.48h.47v1.51h-.58Z"/>
      <path class="st1" d="M980.87,269.53c-1.12,0-2.03-.25-2.75-.76-.71-.51-1.24-1.2-1.58-2.08-.34-.88-.51-1.89-.51-3.02,0-1.25.17-2.34.5-3.27.33-.93.84-1.65,1.53-2.17s1.56-.77,2.61-.77c1.39,0,2.48.49,3.28,1.46.8.97,1.2,2.38,1.2,4.21,0,.1,0,.22-.01.36,0,.14-.02.26-.02.34h-7.24c0,.81.1,1.53.3,2.18.2.65.52,1.16.96,1.54.44.38,1.01.56,1.73.56s1.22-.15,1.59-.44.63-.72.78-1.28h1.85c-.12.65-.36,1.21-.71,1.68-.35.47-.82.83-1.41,1.08-.59.25-1.29.38-2.1.38ZM977.88,262.47h5.46c-.02-1.17-.27-2.07-.73-2.68-.46-.61-1.11-.92-1.93-.92s-1.48.29-1.96.88c-.48.58-.76,1.49-.83,2.72Z"/>
      <path class="st1" d="M987.37,269.35v-11.7h1.79l.05,1.74c.32-.46.77-.89,1.35-1.29.58-.4,1.31-.6,2.2-.6,1.1,0,1.91.35,2.41,1.04.51.69.76,1.65.76,2.88v7.94h-1.85v-7.67c0-.48-.05-.91-.14-1.31s-.27-.72-.53-.97c-.26-.25-.64-.37-1.15-.37-.72,0-1.32.19-1.83.57-.5.38-.91.79-1.21,1.23v8.52h-1.86Z"/>
      <path class="st1" d="M1002.06,269.52c-.81,0-1.52-.23-2.12-.68-.6-.45-1.06-1.13-1.39-2.02-.32-.89-.49-2.01-.49-3.33s.17-2.5.52-3.39.83-1.55,1.45-1.99c.62-.43,1.35-.65,2.19-.65.72,0,1.35.17,1.92.52.56.35,1,.82,1.3,1.41v-5.55h1.83v15.5h-1.74l-.09-1.65c-.37.55-.83.99-1.39,1.32-.56.33-1.22.5-1.99.5ZM1002.47,268.03c.71,0,1.31-.18,1.79-.55.49-.36.88-.82,1.18-1.36v-5.01c-.28-.64-.66-1.16-1.12-1.55-.47-.39-1.04-.58-1.73-.58-.87,0-1.52.38-1.97,1.13-.45.76-.67,1.88-.67,3.38s.21,2.59.65,3.37c.43.78,1.06,1.17,1.88,1.17Z"/>
      <path class="st1" d="M1011.01,255.88c-.34,0-.62-.1-.82-.3-.21-.2-.31-.45-.31-.76s.1-.56.31-.77c.21-.2.48-.31.82-.31s.62.1.82.31c.21.2.31.46.31.77s-.1.56-.31.76c-.21.2-.48.3-.82.3ZM1010.08,269.35v-11.7h1.85v11.7h-1.85Z"/>
      <path class="st1" d="M1014.73,269.35v-11.7h1.76l.05,1.9c.28-.57.68-1.05,1.18-1.45.51-.4,1.16-.59,1.96-.59h.21v1.69h-.24c-.48,0-.91.07-1.28.21-.38.14-.71.34-.99.6-.29.26-.54.56-.77.91v8.43h-1.86Z"/>
      <path class="st1" d="M1022.3,255.88c-.34,0-.62-.1-.82-.3-.21-.2-.31-.45-.31-.76s.1-.56.31-.77c.21-.2.48-.31.82-.31s.62.1.82.31c.21.2.31.46.31.77s-.1.56-.31.76c-.21.2-.48.3-.82.3ZM1021.38,269.35v-11.7h1.85v11.7h-1.85Z"/>
      <path class="st1" d="M1026.02,269.35v-11.7h1.76l.05,1.9c.28-.57.68-1.05,1.18-1.45.51-.4,1.16-.59,1.96-.59h.21v1.69h-.24c-.48,0-.91.07-1.28.21-.38.14-.71.34-.99.6-.29.26-.54.56-.77.91v8.43h-1.86Z"/>
      <path class="st1" d="M1032.39,269.46c-.4,0-.73-.14-.99-.42-.26-.28-.39-.61-.39-1s.13-.74.39-1.01c.26-.26.59-.4.99-.4s.72.13.98.39c.26.26.39.6.39,1.01,0,.39-.13.73-.39,1s-.59.42-.98.42Z"/>
    </g>
    <g>
      <path class="st1" d="M807.1,88.64v-34.94h4.89l11.01,20.77h-1.83l10.83-20.77h4.76v34.94h-4.35v-31.15h1.6l-10.52,20.15h-3.06l-10.7-20.15h1.62v31.15h-4.25Z"/>
      <path class="st1" d="M839.75,88.64l11.68-34.94h4.71l11.55,34.94h-4.63l-2.98-9.97h-12.61l-3.11,9.97h-4.61ZM848.6,74.88h10.34l-5.17-16.8-5.17,16.8Z"/>
      <path class="st1" d="M880.38,89.11c-2.35,0-4.42-.36-6.21-1.08s-3.2-1.85-4.23-3.39c-1.03-1.54-1.56-3.53-1.6-5.97h4.48c.05,1.73.43,3.09,1.15,4.08.71.99,1.64,1.68,2.79,2.09,1.15.41,2.4.61,3.76.61s2.47-.22,3.54-.65c1.07-.43,1.93-1.09,2.56-1.99.63-.89.95-2.04.95-3.44,0-1.26-.25-2.31-.76-3.15-.51-.84-1.33-1.56-2.48-2.17-1.15-.61-2.7-1.19-4.66-1.74-2.35-.68-4.3-1.43-5.84-2.27-1.54-.84-2.7-1.88-3.46-3.13-.76-1.25-1.15-2.8-1.15-4.67s.43-3.55,1.29-4.88c.86-1.33,2.08-2.35,3.65-3.06,1.58-.71,3.46-1.06,5.64-1.06s4.04.35,5.7,1.04,2.96,1.72,3.92,3.09c.96,1.37,1.47,3.07,1.52,5.11h-4.5c-.07-1.87-.72-3.28-1.96-4.22-1.24-.94-2.78-1.42-4.63-1.42-1.96,0-3.48.46-4.58,1.36-1.1.91-1.65,2.21-1.65,3.91,0,1.09.24,2,.71,2.74.47.74,1.3,1.38,2.47,1.95,1.17.56,2.8,1.15,4.88,1.75,2.38.71,4.34,1.49,5.85,2.35,1.52.86,2.64,1.94,3.36,3.26.72,1.32,1.08,3,1.08,5.06s-.49,3.93-1.47,5.4c-.98,1.47-2.33,2.59-4.07,3.35-1.73.76-3.75,1.14-6.05,1.14Z"/>
      <path class="st1" d="M892.57,88.64l11.68-34.94h4.71l11.55,34.94h-4.63l-2.98-9.97h-12.61l-3.11,9.97h-4.61ZM901.42,74.88h10.34l-5.17-16.8-5.17,16.8Z"/>
      <path class="st1" d="M923.49,88.64v-34.94h4.66l16.83,28.17v-28.17h4.12v34.94h-4.68l-16.83-28.19v28.19h-4.09Z"/>
      <path class="st1" d="M956.14,88.64v-34.94h4.45v34.94h-4.45Z"/>
      <path class="st1" d="M964.4,88.64v-3.5l16.85-27.7h-15.75v-3.74h20.84v3.4l-16.96,27.83h17.88v3.71h-22.88Z"/>
      <path class="st1" d="M991.1,88.64v-34.94h4.45v34.94h-4.45Z"/>
      <path class="st1" d="M1002.6,88.64v-34.94h4.66l16.83,28.17v-28.17h4.12v34.94h-4.68l-16.83-28.19v28.19h-4.09Z"/>
      <path class="st1" d="M808.67,152.45v-34.94h4.45v16.82l12.71-16.82h5.04l-12.89,16.49,13.92,18.46h-5.33l-13.46-17.94v17.94h-4.45Z"/>
      <path class="st1" d="M846.54,152.91c-3.35,0-6.12-.75-8.34-2.26s-3.87-3.6-4.98-6.3-1.66-5.81-1.66-9.36.55-6.67,1.66-9.37c1.11-2.7,2.77-4.81,4.98-6.32,2.21-1.51,4.99-2.27,8.34-2.27s6.09.76,8.3,2.27c2.2,1.51,3.86,3.62,4.97,6.31,1.11,2.69,1.66,5.82,1.66,9.38s-.55,6.67-1.66,9.36-2.76,4.79-4.97,6.3c-2.2,1.51-4.97,2.26-8.3,2.26ZM846.54,149.28c2.5,0,4.51-.63,6.02-1.9,1.51-1.26,2.61-2.98,3.29-5.14.69-2.16,1.03-4.58,1.03-7.24s-.34-5.11-1.03-7.28-1.78-3.89-3.29-5.15c-1.51-1.26-3.52-1.9-6.02-1.9s-4.52.64-6.05,1.91c-1.53,1.27-2.63,2.99-3.31,5.15-.68,2.16-1.02,4.59-1.02,7.27s.34,5.08,1.02,7.23c.68,2.16,1.78,3.87,3.31,5.14,1.53,1.27,3.54,1.91,6.05,1.91Z"/>
      <path class="st1" d="M866.99,152.45v-34.94h4.66l16.83,28.17v-28.17h4.12v34.94h-4.68l-16.83-28.19v28.19h-4.09Z"/>
      <path class="st1" d="M904.71,152.45v-31.21h-8.85v-3.74h22.13v3.74h-8.8v31.21h-4.48Z"/>
      <path class="st1" d="M921.3,152.45v-34.94h11.73c1.87,0,3.57.32,5.11.96,1.54.64,2.76,1.64,3.67,3.01s1.36,3.13,1.36,5.3-.55,4.07-1.66,5.62-2.75,2.59-4.93,3.13c1.25.21,2.26.66,3.04,1.35.77.69,1.4,1.61,1.88,2.75.48,1.14.9,2.48,1.26,4.02l2.06,8.8h-4.61l-1.78-8.13c-.31-1.42-.67-2.63-1.09-3.65s-1-1.79-1.75-2.34c-.75-.54-1.76-.82-3.05-.82h-6.79v14.93h-4.45ZM925.75,133.81h6.69c1.17,0,2.22-.26,3.15-.77.93-.51,1.68-1.24,2.24-2.19s.84-2.09.84-3.4c0-1.97-.52-3.5-1.56-4.59-1.04-1.09-2.56-1.64-4.57-1.64h-6.79v12.59Z"/>
      <path class="st1" d="M962.11,152.91c-3.35,0-6.12-.75-8.34-2.26s-3.87-3.6-4.98-6.3-1.66-5.81-1.66-9.36.55-6.67,1.66-9.37c1.11-2.7,2.77-4.81,4.98-6.32,2.21-1.51,4.99-2.27,8.34-2.27s6.09.76,8.3,2.27c2.2,1.51,3.86,3.62,4.97,6.31,1.11,2.69,1.66,5.82,1.66,9.38s-.55,6.67-1.66,9.36-2.76,4.79-4.97,6.3c-2.2,1.51-4.97,2.26-8.3,2.26ZM962.11,149.28c2.5,0,4.51-.63,6.02-1.9,1.51-1.26,2.61-2.98,3.29-5.14.69-2.16,1.03-4.58,1.03-7.24s-.34-5.11-1.03-7.28-1.78-3.89-3.29-5.15c-1.51-1.26-3.52-1.9-6.02-1.9s-4.52.64-6.05,1.91c-1.53,1.27-2.63,2.99-3.31,5.15-.68,2.16-1.02,4.59-1.02,7.27s.34,5.08,1.02,7.23c.68,2.16,1.78,3.87,3.31,5.14,1.53,1.27,3.54,1.91,6.05,1.91Z"/>
      <path class="st1" d="M982.56,152.45v-34.94h4.45v31.1h14.46v3.84h-18.91Z"/>
      <path class="st1" d="M1016,152.94c-2.95,0-5.35-.53-7.2-1.6s-3.21-2.55-4.07-4.45c-.86-1.9-1.29-4.1-1.29-6.59v-22.79h4.53v22.69c0,3.1.65,5.37,1.96,6.83,1.3,1.45,3.34,2.18,6.1,2.18s4.79-.73,6.1-2.18c1.3-1.45,1.96-3.73,1.96-6.83v-22.69h4.53v22.79c0,2.49-.43,4.69-1.3,6.59-.87,1.9-2.22,3.39-4.07,4.45-1.84,1.06-4.26,1.6-7.24,1.6ZM1011.91,113.14c-.63,0-1.17-.21-1.61-.64-.44-.42-.66-.97-.66-1.65s.22-1.2.66-1.64c.44-.43.97-.65,1.61-.65s1.15.22,1.58.65c.44.43.66.98.66,1.64s-.22,1.22-.66,1.65c-.44.42-.96.64-1.58.64ZM1020.17,113.14c-.62,0-1.15-.21-1.58-.64-.44-.42-.66-.97-.66-1.65s.22-1.2.66-1.64c.44-.43.96-.65,1.58-.65s1.17.22,1.61.65c.44.43.66.98.66,1.64s-.22,1.22-.66,1.65c-.44.42-.97.64-1.61.64Z"/>
      <path class="st1" d="M919.43,216.72c-2.35,0-4.42-.36-6.21-1.08s-3.2-1.85-4.23-3.39c-1.03-1.54-1.56-3.53-1.6-5.97h4.48c.05,1.73.43,3.09,1.15,4.08.71.99,1.64,1.68,2.79,2.09,1.15.41,2.4.61,3.76.61s2.47-.22,3.54-.65c1.07-.43,1.93-1.09,2.56-1.99.63-.89.95-2.04.95-3.44,0-1.26-.25-2.31-.76-3.15-.51-.84-1.33-1.56-2.48-2.17-1.15-.61-2.7-1.19-4.66-1.74-2.35-.68-4.3-1.43-5.84-2.27-1.54-.84-2.7-1.88-3.46-3.13-.76-1.25-1.15-2.8-1.15-4.67s.43-3.55,1.29-4.88c.86-1.33,2.08-2.35,3.65-3.06,1.58-.71,3.46-1.06,5.64-1.06s4.04.35,5.7,1.04,2.96,1.72,3.92,3.09c.96,1.37,1.47,3.07,1.52,5.11h-4.5c-.07-1.87-.72-3.28-1.96-4.22-1.24-.94-2.78-1.42-4.63-1.42-1.96,0-3.48.46-4.58,1.36-1.1.91-1.65,2.21-1.65,3.91,0,1.09.24,2,.71,2.74.47.74,1.3,1.38,2.47,1.95,1.17.56,2.8,1.15,4.88,1.75,2.38.71,4.34,1.49,5.85,2.35,1.52.86,2.64,1.94,3.36,3.26.72,1.32,1.08,3,1.08,5.06s-.49,3.93-1.47,5.4c-.98,1.47-2.33,2.59-4.07,3.35-1.73.76-3.75,1.14-6.05,1.14Z"/>
      <path class="st1" d="M937.95,177.15c-.79,0-1.42-.23-1.88-.69-.46-.46-.69-1.04-.69-1.75s.23-1.3.69-1.76c.46-.47,1.09-.7,1.88-.7s1.37.23,1.84.7c.47.47.71,1.06.71,1.76s-.24,1.29-.71,1.75c-.47.46-1.09.69-1.84.69ZM935.74,216.25v-34.94h4.45v34.94h-4.45Z"/>
      <path class="st1" d="M943.99,216.25v-3.5l16.85-27.7h-15.75v-3.74h20.84v3.4l-16.96,27.83h17.88v3.71h-22.88Z"/>
      <path class="st1" d="M970.69,216.25v-34.94h10.65c3.31,0,6.12.7,8.44,2.09s4.08,3.39,5.29,6c1.21,2.6,1.81,5.73,1.81,9.38s-.61,6.81-1.83,9.41c-1.22,2.6-2.98,4.6-5.3,5.98-2.32,1.38-5.12,2.08-8.41,2.08h-10.65ZM975.15,212.54h5.3c2.56,0,4.71-.46,6.47-1.39,1.76-.93,3.1-2.4,4.01-4.43.92-2.03,1.38-4.68,1.38-7.97s-.47-5.89-1.42-7.91c-.94-2.02-2.29-3.49-4.05-4.41-1.76-.93-3.89-1.39-6.39-1.39h-5.3v27.49Z"/>
      <path class="st1" d="M1002.42,216.25v-34.94h20.07v3.71h-15.62v11.42h14.38v3.63h-14.38v12.46h15.62v3.71h-20.07Z"/>
      <path class="st1" d="M1032.36,216.53c-.91,0-1.66-.31-2.25-.93s-.89-1.38-.89-2.28.3-1.65.89-2.25c.59-.6,1.34-.9,2.25-.9s1.6.3,2.19.9c.58.6.88,1.35.88,2.25s-.29,1.66-.88,2.28c-.58.62-1.31.93-2.19.93ZM1031.15,205.63c-.26-1.99-.48-4.26-.68-6.8-.2-2.54-.3-5.09-.3-7.63v-9.89h4.35v9.89c0,2.56-.1,5.12-.3,7.67-.2,2.55-.43,4.81-.71,6.76h-2.37Z"/>
    </g>
  </g>
  <g>
    <path class="st2" d="M715.33,336.21c-.6,0-1.08-.17-1.43-.52-.35-.35-.53-.79-.53-1.33s.18-.99.53-1.34c.35-.36.83-.53,1.43-.53s1.04.18,1.4.53c.36.36.54.8.54,1.34s-.18.98-.54,1.33c-.36.35-.83.52-1.4.52ZM713.65,365.97v-26.6h3.39v26.6h-3.39Z"/>
    <path class="st2" d="M727.27,365.97c-1.45,0-2.56-.22-3.32-.65-.76-.44-1.29-1.07-1.59-1.92s-.44-1.88-.44-3.12v-20.91h3.17v20.77c0,1.05.14,1.86.42,2.41.28.55.93.83,1.95.83h.8v2.59h-1Z"/>
    <path class="st2" d="M738.16,366.28c-1.92,0-3.49-.44-4.71-1.31-1.22-.87-2.13-2.06-2.71-3.58-.59-1.51-.88-3.24-.88-5.18,0-2.15.29-4.02.86-5.61.57-1.59,1.45-2.83,2.62-3.72s2.67-1.32,4.48-1.32c2.38,0,4.25.83,5.62,2.5,1.37,1.67,2.06,4.07,2.06,7.22,0,.17,0,.38-.02.62-.01.24-.03.44-.04.58h-12.42c0,1.38.17,2.63.52,3.74.35,1.11.89,1.99,1.65,2.64.75.64,1.74.97,2.97.97s2.1-.25,2.73-.75,1.08-1.23,1.34-2.19h3.17c-.21,1.12-.62,2.08-1.22,2.88-.61.8-1.41,1.42-2.42,1.85-1.01.43-2.21.64-3.6.64ZM733.03,354.17h9.36c-.04-2.02-.46-3.55-1.25-4.6-.8-1.05-1.9-1.57-3.31-1.57s-2.55.5-3.37,1.5c-.82,1-1.3,2.56-1.43,4.66Z"/>
    <path class="st2" d="M755.19,365.97c-1.4,0-2.48-.23-3.25-.7-.77-.47-1.31-1.16-1.61-2.08-.3-.92-.45-2.06-.45-3.4v-11.36h-2.9v-2.53h2.9v-4.39h3.13v4.39h4.21v2.53h-4.21v11.22c0,1.16.13,2.08.4,2.77.27.69.92,1.03,1.97,1.03h1.84v2.53h-2.04Z"/>
    <path class="st2" d="M761.79,342.87c-.59,0-1.06-.17-1.41-.51-.35-.34-.53-.78-.53-1.3s.18-.96.53-1.31c.35-.35.82-.52,1.41-.52s1.06.17,1.41.52c.35.35.53.79.53,1.31s-.18.96-.53,1.3c-.35.34-.82.51-1.41.51ZM760.2,365.97v-20.08h3.17v20.08h-3.17Z"/>
    <path class="st2" d="M774.28,366.28c-.95,0-1.85-.1-2.7-.31-.85-.2-1.6-.52-2.26-.95-.66-.43-1.18-.99-1.58-1.69-.39-.7-.62-1.53-.69-2.51h3.04c.12,1.13.55,1.93,1.31,2.39.76.46,1.74.69,2.96.69,1.08,0,1.98-.25,2.68-.75.7-.5,1.06-1.32,1.06-2.45,0-1.07-.32-1.87-.97-2.41-.65-.54-1.79-1.04-3.44-1.48-1.32-.36-2.44-.77-3.37-1.25s-1.63-1.09-2.1-1.82c-.47-.73-.7-1.66-.7-2.78,0-.87.17-1.64.5-2.31s.8-1.23,1.39-1.69c.59-.45,1.29-.8,2.1-1.04.8-.24,1.67-.36,2.61-.36.89,0,1.72.1,2.51.3s1.48.51,2.08.93c.6.42,1.08.96,1.44,1.61.36.65.55,1.43.58,2.32h-3.04c-.08-1-.45-1.71-1.11-2.12-.66-.41-1.49-.62-2.48-.62s-1.85.23-2.49.69-.96,1.19-.96,2.19c0,.57.15,1.05.46,1.44s.8.74,1.49,1.04,1.6.6,2.73.92c1.27.33,2.34.75,3.21,1.25.87.51,1.54,1.16,2,1.95.46.79.69,1.79.69,3,0,1.34-.31,2.44-.93,3.3-.62.86-1.45,1.49-2.5,1.9-1.05.41-2.22.61-3.53.61ZM773.85,373.52c-.68,0-1.28-.06-1.8-.18-.52-.12-1.01-.28-1.47-.47l.51-1.8c.3.16.7.29,1.19.4.49.11.98.16,1.46.16.43,0,.8-.12,1.1-.35.3-.23.45-.55.45-.96,0-.45-.19-.79-.56-1.03-.37-.24-1.04-.41-2.01-.53l-.76-.1,2.35-3.5,1.47.73-1.18,1.86-.61-.48c1.1.07,1.96.34,2.6.82s.95,1.2.95,2.16c0,.71-.16,1.32-.48,1.81s-.76.86-1.31,1.1c-.56.24-1.19.36-1.89.36Z"/>
    <path class="st2" d="M786.54,342.87c-.59,0-1.06-.17-1.41-.51-.35-.34-.53-.78-.53-1.3s.18-.96.53-1.31c.35-.35.82-.52,1.41-.52s1.06.17,1.41.52c.35.35.53.79.53,1.31s-.18.96-.53,1.3c-.35.34-.82.51-1.41.51ZM784.95,365.97v-20.08h3.17v20.08h-3.17Z"/>
    <path class="st2" d="M792.92,365.97v-20.08h3.07l.08,2.98c.52-.79,1.28-1.53,2.28-2.21,1-.69,2.23-1.03,3.69-1.03,1.88,0,3.25.59,4.1,1.77s1.28,2.8,1.28,4.85v13.71h-3.17v-13.14c0-.83-.08-1.59-.24-2.28s-.46-1.24-.9-1.66c-.44-.42-1.1-.62-1.96-.62-1.19,0-2.2.32-3.04.97-.84.64-1.51,1.34-2.02,2.09v14.64h-3.19ZM815.56,365.97v-13.14c0-.83-.08-1.59-.23-2.28s-.46-1.24-.9-1.66c-.44-.42-1.1-.62-1.96-.62-1.16,0-2.17.32-3.03.96-.86.64-1.56,1.33-2.11,2.07l-.43-2.17c.69-.88,1.57-1.68,2.64-2.4,1.07-.72,2.34-1.08,3.82-1.08,1.87,0,3.23.6,4.08,1.8.85,1.2,1.28,2.85,1.28,4.96v13.57h-3.17Z"/>
    <path class="st2" d="M830.69,366.28c-1.92,0-3.49-.44-4.71-1.31-1.22-.87-2.13-2.06-2.71-3.58-.59-1.51-.88-3.24-.88-5.18,0-2.15.29-4.02.86-5.61.57-1.59,1.45-2.83,2.62-3.72s2.67-1.32,4.48-1.32c2.38,0,4.25.83,5.62,2.5,1.37,1.67,2.06,4.07,2.06,7.22,0,.17,0,.38-.02.62-.01.24-.03.44-.04.58h-12.42c0,1.38.17,2.63.52,3.74.35,1.11.89,1.99,1.65,2.64.75.64,1.74.97,2.97.97s2.1-.25,2.73-.75,1.08-1.23,1.34-2.19h3.17c-.21,1.12-.62,2.08-1.22,2.88-.61.8-1.41,1.42-2.42,1.85-1.01.43-2.21.64-3.6.64ZM825.56,354.17h9.36c-.04-2.02-.46-3.55-1.25-4.6-.8-1.05-1.9-1.57-3.31-1.57s-2.55.5-3.37,1.5c-.82,1-1.3,2.56-1.43,4.66Z"/>
    <path class="st2" d="M854.54,373.42c-1.92,0-3.45-.24-4.6-.71-1.15-.47-1.98-1.11-2.5-1.9-.52-.79-.77-1.63-.77-2.53,0-1.17.43-2.2,1.3-3.09.87-.89,2.21-1.51,4.02-1.87l.57-1.11,2.37-.02c2.74,0,4.77.41,6.1,1.22,1.33.81,1.99,2.16,1.99,4.04,0,1.74-.72,3.17-2.14,4.29-1.43,1.12-3.54,1.68-6.34,1.68ZM852.25,364.41c-1.21-.09-2.17-.32-2.88-.68-.71-.36-1.21-.78-1.51-1.25s-.45-.92-.45-1.34c0-.63.25-1.26.76-1.88s1.33-1.11,2.45-1.48l1.31.87c-.64.21-1.13.5-1.48.88s-.52.77-.52,1.2c0,.28.11.52.34.74.23.22.62.39,1.17.52.55.13,1.29.2,2.23.22l-1.43,2.21ZM854.3,359.17c-1.49,0-2.74-.31-3.76-.93-1.02-.62-1.79-1.44-2.31-2.45-.52-1.02-.78-2.11-.78-3.3,0-1.26.26-2.41.79-3.43.53-1.02,1.31-1.83,2.34-2.44s2.31-.91,3.84-.91,2.85.3,3.86.91c1.01.61,1.75,1.42,2.24,2.44.49,1.02.73,2.16.73,3.43s-.25,2.34-.75,3.35c-.5,1.01-1.27,1.82-2.29,2.42-1.03.61-2.33.91-3.91.91ZM854.46,371.18c2.02,0,3.45-.34,4.28-1.02s1.24-1.51,1.24-2.5c0-.63-.16-1.17-.47-1.61s-.85-.78-1.62-1.01c-.76-.23-1.81-.35-3.14-.35h-2.6c-.82.24-1.45.65-1.88,1.24s-.65,1.27-.65,2.04c0,.84.38,1.59,1.14,2.23.76.64,1.99.97,3.7.97ZM854.3,357.08c1.19,0,2.15-.38,2.87-1.14s1.09-1.91,1.09-3.45-.34-2.79-1.02-3.56c-.68-.76-1.62-1.15-2.82-1.15s-2.14.4-2.87,1.2c-.72.8-1.09,1.97-1.09,3.51s.38,2.67,1.14,3.44,1.66,1.15,2.7,1.15ZM858.9,347.79l-1.1-1.17c.5-1.19,1.15-2.01,1.96-2.47.81-.46,1.87-.71,3.17-.75v2.69c-.84,0-1.61.1-2.31.29-.7.19-1.28.66-1.72,1.41Z"/>
    <path class="st2" d="M872.43,366.28c-1.92,0-3.49-.44-4.71-1.31-1.22-.87-2.13-2.06-2.71-3.58-.59-1.51-.88-3.24-.88-5.18,0-2.15.29-4.02.86-5.61.57-1.59,1.45-2.83,2.62-3.72s2.67-1.32,4.48-1.32c2.38,0,4.25.83,5.62,2.5,1.37,1.67,2.06,4.07,2.06,7.22,0,.17,0,.38-.02.62-.01.24-.03.44-.04.58h-12.42c0,1.38.17,2.63.52,3.74.35,1.11.89,1.99,1.65,2.64.75.64,1.74.97,2.97.97s2.1-.25,2.73-.75,1.08-1.23,1.34-2.19h3.17c-.21,1.12-.62,2.08-1.22,2.88-.61.8-1.41,1.42-2.42,1.85-1.01.43-2.21.64-3.6.64ZM867.3,354.17h9.36c-.04-2.02-.46-3.55-1.25-4.6-.8-1.05-1.9-1.57-3.31-1.57s-2.55.5-3.37,1.5c-.82,1-1.3,2.56-1.43,4.66Z"/>
    <path class="st2" d="M890.68,366.24c-1.63,0-3.06-.39-4.27-1.17-1.21-.78-2.15-1.93-2.82-3.46s-1-3.42-1-5.67.32-4.18.97-5.72c.65-1.53,1.58-2.69,2.79-3.48,1.21-.78,2.66-1.18,4.33-1.18,1.31,0,2.47.21,3.51.62,1.03.42,1.86,1.05,2.5,1.9.63.85,1.02,1.92,1.17,3.21h-3.13c-.17-1-.58-1.78-1.23-2.34-.65-.56-1.58-.84-2.78-.84-1.68,0-2.92.69-3.7,2.08s-1.18,3.3-1.18,5.75c0,1.61.17,2.99.52,4.16s.88,2.06,1.61,2.67c.72.61,1.64.92,2.75.92,1.24,0,2.2-.29,2.89-.88.69-.59,1.12-1.45,1.3-2.6h3.11c-.22,2.03-1,3.54-2.32,4.54-1.33.99-2.99,1.49-5,1.49ZM890.21,373.52c-.68,0-1.28-.06-1.8-.18-.52-.12-1.01-.28-1.47-.47l.51-1.8c.3.16.7.29,1.18.4.49.11.98.16,1.46.16.43,0,.8-.12,1.1-.35.3-.23.45-.55.45-.96,0-.45-.19-.79-.56-1.03-.37-.24-1.04-.41-2.01-.53l-.76-.1,2.35-3.5,1.47.73-1.18,1.86-.61-.48c1.1.07,1.96.34,2.6.82s.95,1.2.95,2.16c0,.71-.16,1.32-.48,1.81s-.76.86-1.31,1.1c-.56.24-1.19.36-1.89.36Z"/>
    <path class="st2" d="M903.41,342.87c-.59,0-1.06-.17-1.41-.51-.35-.34-.53-.78-.53-1.3s.18-.96.53-1.31c.35-.35.82-.52,1.41-.52s1.06.17,1.41.52c.35.35.53.79.53,1.31s-.18.96-.53,1.3c-.35.34-.82.51-1.41.51ZM901.82,365.97v-20.08h3.17v20.08h-3.17Z"/>
    <path class="st2" d="M909.79,365.97v-20.08h3.07l.08,2.98c.55-.79,1.32-1.53,2.31-2.21.99-.69,2.25-1.03,3.78-1.03,1.89,0,3.27.59,4.14,1.78.87,1.19,1.3,2.83,1.3,4.94v13.61h-3.17v-13.16c0-.82-.08-1.57-.23-2.25s-.46-1.24-.9-1.66c-.44-.42-1.1-.63-1.98-.63-1.23,0-2.27.33-3.13.98-.86.65-1.55,1.35-2.08,2.1v14.62h-3.19Z"/>
  </g>
</svg>